/* XPM */
static char *apple1681848843[] = {
/* columns rows colors chars-per-pixel */
"45 45 14 1 ",
"  c None",
". c black",
"X c #437817",
"o c #833E02",
"O c #CF0D03",
"+ c #E72114",
"@ c #FD372A",
"# c #C35B02",
"$ c #FC786C",
"% c #589E1F",
"& c #77C03B",
"* c #92DA57",
"= c white",
"  c #C8D45D",
/* pixels */
"                                             ",
"                                             ",
"                                             ",
"                                             ",
"                                             ",
"                                             ",
"                                             ",
"                                             ",
"               ....                          ",
"              .****.                         ",
"             .*&&&&%.     ....               ",
"             .%%%&%%X..  .****.              ",
"              ...%%XX.o..%&&&&*.             ",
"                 ....##oX%%&%%%.             ",
"                     .#.XX%%...              ",
"                     .#.....                 ",
"                ......#o.....                ",
"              ..OOOOO.o.OO$$@..              ",
"             .O++++++O.O+++O+$$.             ",
"            .O+++++++++++O+++++$.            ",
"            .O+++++++++++O+++++@.            ",
"           .O+++++++++++++OO++++$.           ",
"           .O+++++++++++++++++++@.           ",
"          .O+++++++++++++++++++++$.          ",
"          .O+++++@$++++++++++@$++$.          ",
"          .O++++@..$++++++++@..$+$.          ",
"          .O++++...=++++++++...=+O.          ",
"          .O++++....++++++++....+O.          ",
"          .O++++O..O++++++++O..O+@.          ",
"           .O++++OO++.+++++.+OO+@.           ",
"           .O++++++++O.....O++++@.           ",
"            .O+O+O+++O==O==O+++O.            ",
"            .O+++O+O++OOOOO++++O.            ",
"             .O+++++++++++++++O.             ",
"              .OO+O+++++++++OO.              ",
"               ..OO+++++++OO..               ",
"                 ..OOOOOOO..                 ",
"                   .......                   ",
"                                             ",
"                                             ",
"                                             ",
"                                             ",
"                                             ",
"                                             ",
"                                             "
};
