/* XPM */
static char *boo1681848177[] = {
/* columns rows colors chars-per-pixel */
"45 45 63 1 ",
"  c None",
". c #000101",
"X c #0B0102",
"o c #0D0609",
"O c #0B0A0A",
"+ c #110204",
"@ c #1B0305",
"# c #150609",
"$ c #1E060A",
"% c #270000",
"& c #2D0000",
"* c #22070B",
"= c #2B070C",
"- c #2D080E",
"; c #330000",
": c #3D0005",
"> c #32070E",
", c #38070F",
"< c #32080F",
"1 c #350910",
"2 c #3A0911",
"3 c #2F2F2F",
"4 c #440A14",
"5 c #4B0B16",
"6 c #510C17",
"7 c #540D18",
"8 c #5C0E1B",
"9 c #50161D",
"0 c #640F1D",
"q c #67101F",
"w c #6A101F",
"e c #6E1120",
"r c #741222",
"t c #7B1324",
"y c #424444",
"u c #5D5F5F",
"i c #656464",
"p c #6D6D6D",
"a c #747474",
"s c #7E7E7E",
"d c #96001D",
"f c #800F23",
"g c #970023",
"h c #821426",
"j c #861528",
"k c #8B1629",
"l c #90172B",
"z c #95192D",
"x c #9A1A2F",
"c c #9E1A30",
"v c #A21B31",
"b c #AB1D34",
"n c #8D8E8E",
"m c #A0A0A0",
"M c #AEAFAF",
"N c gray75",
"B c #C3C2C2",
"V c #D7D8D8",
"C c #DBDADA",
"Z c #EDEDED",
"A c gray96",
"S c white",
"  c #C8D45D",
/* pixels */
"                                             ",
"                                             ",
"                                             ",
"               2221221222                    ",
"              X7tlllzcczc8                   ",
"              6hxbbckkkkkje                  ",
"             7hxvcvh#$**#kz5                 ",
"           =7hxvvbt>.XXX.2rc7                ",
"           #8kcvxt4.......4tkw               ",
"           4qjxbl<...X.....1vl*              ",
"          2rhjxbz4o........4ck$              ",
"          2rjjkxz4.nCi...BB;gj*              ",
"          1rtetzz4.MSs...ZZ%dj$              ",
"          1tw2rxz2.mAa...CC&dj*              ",
"          2hr,rxz<.yp3...ui:tr-              ",
"           804tlkj9...O.O..2tr-              ",
"           ==4rtkvr<X.....=6t0=              ",
"              1ekjhe-X...#8h8=               ",
"               585rhe-.X.8e7                 ",
"               595rkkrwwekh5                 ",
"              1rkjhlvvbvbvct81               ",
"             4elcxcccvvvcvvcj8=              ",
"             5rzvvbvvcvcvcvvke-              ",
"             4tcvvccvvvvvvvvle=              ",
"             4zvcvcvvvvcvcvcbt*              ",
"            7tcvvvvvcvvvvvvvbt.              ",
"           -qkcvvvcvvvcccvvcvj6              ",
"           *8jccvcvvvvkhcvvvvxt4             ",
"           -8jcvvvcvvvzjvvcvbzr4             ",
"           #8jcvvvvvvztelvvvxkt4             ",
"           2ehcccccvcj82tzvcjht4             ",
"          2ehhtxctcchhe4thlcktt4             ",
"          2rkhtjlzlkhq2=8rjljht4             ",
"          2rhrhtjcktw2..*ejtrtt4             ",
"          2re2thhtje<X.+,ejh4qt4             ",
"           654tr8hkr<X..+,0jtr5              ",
"            -4w72we82@ ..@5er8               ",
"             2<  =->2   .=,--                ",
"                 XX+     X+                  ",
"                  ..     ..                  ",
"                  ..     ..                  ",
"                  ..     ..                  ",
"                                             ",
"                                             ",
"                                             "
};
