/* XPM */
static char *_41681838591[] = {
/* columns rows colors chars-per-pixel */
"45 45 77 1 ",
"  c None",
". c black",
"X c #000001",
"o c #010101",
"O c #08070C",
"+ c #0D0C12",
"@ c #0E0C12",
"# c #121118",
"$ c #131118",
"% c #131219",
"& c #16151D",
"* c #17151D",
"= c #17151E",
"- c #1C1A23",
"; c #25232E",
": c #282531",
"> c #282532",
", c #312E3C",
"< c #343140",
"1 c #373343",
"2 c #3A3647",
"3 c #3C3849",
"4 c #3C394A",
"5 c #423E51",
"6 c #454154",
"7 c #474256",
"8 c #474356",
"9 c #494459",
"0 c #4F4A60",
"q c #514C62",
"w c #524C63",
"e c #534D64",
"r c #534E64",
"t c #544E66",
"y c #544F66",
"u c #554F66",
"i c #555067",
"p c #565067",
"a c #565068",
"s c #565168",
"d c #575168",
"f c #575169",
"g c #58526A",
"h c #59536B",
"j c #5A536C",
"k c #5A546C",
"l c #5A546D",
"z c #5E5871",
"x c #635C76",
"c c #66607A",
"v c #67607A",
"b c #67607B",
"n c #67617B",
"m c #68617C",
"M c #69627D",
"N c #706885",
"B c #736B89",
"V c #766E8C",
"C c #766F8C",
"Z c #776F8D",
"A c #78708D",
"S c #78708E",
"D c #79718F",
"F c #7A7290",
"G c #7B7290",
"H c #7B7291",
"J c #7B7292",
"K c #7B7392",
"L c #7C7491",
"P c #7C7492",
"I c #7D7493",
"U c #7D7594",
"Y c #7E7594",
"T c #7E7595",
"R c #807797",
"E c #827999",
"  c #C8D45D",
/* pixels */
"                                             ",
"          TUUUUUUURUUURPPRPRRPPRUUU          ",
"          UTUUUUUUUUUUUUPUUUUPPRURF          ",
"       FEBgdjjdjgggggggggggggggggdjVEJ       ",
"      FbxxgdddddgagggagggggggggggddxbbF      ",
"     VDlwdljjjjgggggggggggggggggggjeqlDV     ",
"    FDegggaddadagaaagaaaaaaaaaaaegigggrDJ    ",
"   Umjdgjt8588887777777777777777868ilgglmP   ",
"  VNzeglr95,;>>>>>>>>>>>>>>>>>>>;,59rlgezNZ  ",
" DUedlgd932=.....................=239igjdiUV ",
"Pmdgggi652O.......................O256igdgdMP",
"Emrggr86<=.........................-168qjgrmE",
"Pmigl031-...........................-130lgiMP",
"Pmeglq3+.............................@30jdrMP",
"Pmegjq3%.............................%3rjgrMP",
"Pmigjq3%.............................%40jgrMP",
"Pmigjq3%.............................%3qjgemP",
"Pmegjq3%.............................%3qjgdmK",
"Pmigjq3%.............................%3qjgrMK",
"Pmegjq3%.............................%3qjgrMK",
"Pmigjq3%.............................%3qjgrMF",
"Pmigjq3%.............................%3qjgrMU",
"Pmegjq3%.............................%3qjgtMF",
"Pmigjq3%.............................%3qjgiMU",
"Pmidlq3%.............................%3qjgrMP",
"Pmigjq3%.............................%3qjgrMP",
"Pmigjq3%.............................%3qjgdMP",
"Pmegjq3%.............................%3rjgemP",
"FMigjq3%.............................%3rjgtMP",
"UMrgjq3%.............................%30jgrMP",
"KMddjq3%.............................%4rggtMP",
"FMegjq3%.............................%40jgrMP",
"Kmidjq3%.............................%3qjgrMU",
"Pmijjq3%.............................%3qjgrbF",
"FMrdjq3%.............................%3qjgeMU",
"UMigjq3%.............................%3qjgdMK",
"KMrdlq3%.............................%3qljibK",
"FMillq3%.............................%3qjdrMP",
"Kmidjq3%.............................%3qjdibP",
"Kmidjq3%.............................%3rldimP",
"FMigjq3%.............................%3qlgrMF",
"UMrgjq3%.............................%3qjgrMU",
"KMddjq3%.............................%3qjgeMF",
"FMegjq3%.............................%3qjgdMU",
"Kmidjq3%.............................%3qlgrMK"
};
