/* XPM */
static char *finn1681850078[] = {
/* columns rows colors chars-per-pixel */
"45 45 210 2 ",
"   c None",
".  c #000001",
"X  c #0C0500",
"o  c #00000B",
"O  c #0C0B00",
"+  c #000014",
"@  c #00001C",
"#  c #081A1E",
"$  c #101B19",
"%  c #191100",
"&  c #2C1700",
"*  c #003D0F",
"=  c #00002B",
"-  c #050626",
";  c #0E172A",
":  c #2D0026",
">  c #17292C",
",  c #1E362D",
"<  c #00352E",
"1  c #2C292A",
"2  c #232C35",
"3  c #293338",
"4  c #642800",
"5  c #431A2C",
"6  c #41332D",
"7  c #4B3833",
"8  c #5A373A",
"9  c #5E3434",
"0  c #623530",
"q  c #004300",
"w  c #004D03",
"e  c #005105",
"r  c #005D18",
"t  c #08721B",
"y  c #377E17",
"u  c #004122",
"i  c #385732",
"p  c #00663F",
"a  c #346726",
"s  c #3A7B27",
"d  c #594339",
"f  c #63443B",
"g  c #4E7034",
"h  c #000046",
"j  c #00004B",
"k  c #132743",
"l  c #0C377A",
"z  c #253E77",
"x  c #00414C",
"c  c #1E6A59",
"v  c #33605D",
"b  c #367B7F",
"n  c #494D52",
"m  c #53575B",
"M  c #4F5357",
"N  c #684A42",
"B  c #7A4D48",
"V  c #755545",
"C  c #426042",
"Z  c #67605F",
"A  c #564B64",
"S  c #6D5C6C",
"D  c #5E6164",
"F  c #696B6E",
"G  c #656668",
"H  c #6A6E72",
"J  c #6D7175",
"K  c #727579",
"L  c #746E6E",
"P  c #825B49",
"I  c #964A46",
"U  c #896047",
"Y  c #9B6751",
"T  c #AA795A",
"R  c #B57859",
"E  c #A27470",
"W  c #C36B5A",
"Q  c #C77451",
"!  c #D87A63",
"~  c #3D8900",
"^  c #3E9100",
"/  c #4D9508",
"(  c #428625",
")  c #53962C",
"_  c #379679",
"`  c #6A955A",
"'  c #79A253",
"]  c #429B7A",
"[  c #76AA60",
"{  c #B8805F",
"}  c #8B9A7D",
"|  c #BC8563",
" . c #87BA69",
".. c #88BA72",
"X. c #D9895D",
"o. c #CE8B5C",
"O. c #E78D57",
"+. c #EE9655",
"@. c #F0995A",
"#. c #C98866",
"$. c #CE916C",
"%. c #D49268",
"&. c #C18D7C",
"*. c #DD9A72",
"=. c #D29571",
"-. c #D18768",
";. c #EC9C65",
":. c #EE9E69",
">. c #EC9763",
",. c #E49B73",
"<. c #E9966A",
"1. c #EBA36E",
"2. c #ECA376",
"3. c #EEA579",
"4. c #E6A076",
"5. c #F1A779",
"6. c #F3A97C",
"7. c #F0A577",
"8. c #FFB176",
"9. c #F1A06A",
"0. c #8CC55F",
"q. c #8DC674",
"w. c #88C36C",
"e. c #003983",
"r. c #14449A",
"t. c #0E4F8A",
"y. c #0847A2",
"u. c #2459B5",
"i. c #007BBB",
"p. c #0077BC",
"a. c #0074A7",
"s. c #494A8A",
"d. c #6D7FA9",
"f. c #0058D1",
"g. c #0F5EC2",
"h. c #007DC3",
"j. c #0665D2",
"k. c #0B66D2",
"l. c #1C7FC1",
"z. c #2763CA",
"x. c #399888",
"c. c #388292",
"v. c #0C83B6",
"b. c #3087B1",
"n. c #4A9F90",
"m. c #4FA186",
"M. c #77B391",
"N. c #57A2A6",
"B. c #77BDA0",
"V. c #7EC5A0",
"C. c #0988CF",
"Z. c #0890CB",
"A. c #1691C7",
"S. c #0380D5",
"D. c #008FD6",
"F. c #0091D4",
"G. c #1496D3",
"H. c #299ACF",
"J. c #6F92C3",
"K. c #8A8482",
"L. c #8B8A86",
"P. c #86838D",
"I. c #848688",
"U. c #8E9193",
"Y. c #959799",
"T. c #898C92",
"R. c #B58899",
"E. c #9E9FA1",
"W. c #A6A7A8",
"Q. c #B8B9B9",
"!. c #D29F85",
"~. c #EDAC8A",
"^. c #EEAC86",
"/. c #F6AE82",
"(. c #F8B086",
"). c #EFB493",
"_. c #EFB99D",
"`. c #F4B694",
"'. c #C797AB",
"]. c #F0BFA7",
"[. c #9FD881",
"{. c #A1DB80",
"}. c #A4E085",
"|. c #D8C7BF",
" X c #F2CAB7",
".X c #F2C2AB",
"XX c #899DC5",
"oX c #89A1CA",
"OX c #CCCCCD",
"+X c #C6C7C8",
"@X c #D3D3D4",
"#X c #DBDBDC",
"$X c #D4D0CF",
"%X c #FDDAC9",
"&X c #F5E5DD",
"*X c #FDE6DC",
"=X c #E0DFE1",
"-X c #DEE7EA",
";X c #E5E5E5",
":X c #EAECED",
">X c #E7E9EA",
",X c #F6EAE5",
"<X c #FDEAE2",
"1X c #F6E9E4",
"2X c #FBF1ED",
"3X c #EAEEF0",
"4X c #F4F4F3",
"5X c #FCFEFE",
"6X c #FAF8F7",
"  c #C8D45D",
/* pixels */
"                                                                                          ",
"                                                                                          ",
"                                                                                          ",
"                                                                                          ",
"                                                                                          ",
"                                                                                          ",
"                              o o o o           o o o o                                   ",
"                            F W.$X+XW.n       3 Y.+X@XW.K                                 ",
"                          . I.;X5X5X@XM .     3 $X5X5X:XY..                               ",
"                          . J >X5X5X@X2 . . X . +X5X5X4XL..                               ",
"                          . U.;X5X5X@XF > M 2 m +X5X5X:XE.o                               ",
"                        m Q.;X4X5X5X:X@XOX@XOX@X:X6X5X4X;XQ.n                             ",
"                      . J ;X5X5X6X6X5X5X5X5X5X5X5X4X6X6X5X4XW.2                           ",
"                      . F ;X5X5X6X4X5X5X5X5X5X5X5X5X5X5X5X5X3XQ.D                         ",
"                      . F #X5X6X6X6X4X,X,X,X,X,X:X,X,X,X,X2X5X:XK .                       ",
"                      . F #X5X6X5X5X,X].)._._._._._._._.). X6X>XJ .                       ",
"                      . F #X5X5X4X,X X4.+.9.;.;.;.;.;.;.+.(.*X$XG .                       ",
"                      . F #X5X5X1X.X3.3.3.6.5.2.2.2.3.3.7.6.`.!.N .                       ",
"                      . F #X5X5X&X^.+.3.*.#.=.3.5.2.3.2.$.%.9.X.f +                       ",
"                      . F #X5X5X&X).1.6.| 7 T 3.3.5.6.*.V f 4.*.N .                       ",
"                      . F #X5X5X&X).>.,.Y X Y 3.6.3.6.*.d - #.-.f +                       ",
"                      . F #X5X5X&X).O.! I = T 3.6.3.6.*.V 5 W W 8 +                       ",
"                      . F #X5X5X&X^.+.%.! T =.3.6.3.3.4.#.R X.Q 8 @                       ",
"                      . F #X5X5X1X).:.3.4.3.3.3.3.3.3.2.3.6./.=.N .                       ",
"                      . H #X5X5X4X&X.X3.@.9.:.:.;.;.9.9.+.^.%X|.G .                       ",
"                      X F #X5X6X6X5X1X`.3.^.~.~.~.~.~.~.3..X6X-XH .                       ",
"                    . X D ;X5X5X5X5X6X<X<X<X<X<X<X<X<X*X*X2X5X:XK .                       ",
"                  i C w J OX4X>X>X:X:X3X3X:X:X3X3X3X3X3X3X3X4XOXG .                       ",
"                2 ` w.q...} K.K.} K.K.P.P.T.L.L.L.L.P.P.U.U.Y.I.                          ",
"              . 2  .}.q...c j j j j < w * h j h h h < q . . . .                           ",
"              . , ..q.' v a.h.h.h.h.N...M.i.i.v.i.v.B...g . . .                           ",
"                , [ q.g j d.oXoXJ.l.N.q.B.G.D.F.F.H.[.0.C : P P                           ",
"                > ) ) r 8 &.~.~.| D c ) n.Z.F.Z.F.A.m./ e f %.$.f .                       ",
"              = ; y ^ e 8 *.8.6.o.4 q ~ x.Z.F.Z.F.A._ ~ * B 7.3.V .                       ",
"              = > ( ) e 8 $.(./.=.0 e / x.Z.F.Z.F.A.] / w B 4.,.N .                       ",
"                > a s t g { W o.E s.t.c.b.S.S.S.h.h.b.b x 9 | R d                         ",
"                  = , ( ) i : & z g.j.j.k.j.j.k.k.k.k.g.l % 1 1                           ",
"                    ; a s * o . l f.f.y.r.r.y.y.r.y.f.f.e.. .                             ",
"                      ; ; ; $ O z z.u.k X $ $ $ X k u.z.t.X                               ",
"                            # . S '.R.6 .       o 6 R.'.P +                               ",
"                              + U 1.%.7 o       o 7 %.1.U +                               ",
"                                                                                          ",
"                                                                                          ",
"                                                                                          ",
"                                                                                          "
};
