/* XPM */
static char *mushroom1681850572[] = {
/* columns rows colors chars-per-pixel */
"45 45 200 2 ",
"   c None",
".  c #000000",
"X  c #00000C",
"o  c #00001B",
"O  c #000024",
"+  c #000029",
"@  c #011D2D",
"#  c #00172C",
"$  c #261F30",
"%  c #291E30",
"&  c #2B2332",
"*  c #2F2538",
"=  c #401D2F",
"-  c #5C3C2D",
";  c #4D2031",
":  c #522234",
">  c #543A3D",
",  c #4C3326",
"<  c #63273A",
"1  c #653C3E",
"2  c #66343C",
"3  c #62483E",
"4  c #694042",
"5  c #7C4C46",
"6  c #734748",
"7  c #735442",
"8  c #685E4A",
"9  c #75624C",
"0  c #7C6D55",
"q  c #7F7058",
"w  c #AA0000",
"e  c #B80000",
"r  c #BA0008",
"t  c #A21E3E",
"y  c #88293E",
"u  c #95283D",
"i  c #9B3338",
"p  c #81282A",
"a  c #A3233F",
"s  c #A8393D",
"d  c #C60000",
"f  c #DF0000",
"g  c #C70017",
"h  c #D80619",
"j  c #E20102",
"k  c #E20A0A",
"l  c #E20C06",
"z  c #E21414",
"x  c #E41E18",
"c  c #E32B1F",
"v  c #CC0020",
"b  c #CB002E",
"n  c #D30022",
"m  c #D71E29",
"M  c #CE193D",
"N  c #CD383B",
"B  c #DE3C3C",
"V  c #D63239",
"C  c #DE2A2E",
"Z  c #E22221",
"A  c #E32B2C",
"S  c #E43533",
"D  c #E33C3C",
"F  c #E33739",
"G  c #E43634",
"H  c #DC5037",
"J  c #E2403E",
"K  c #9D2A42",
"L  c #A52C41",
"P  c #A52641",
"I  c #B02D44",
"U  c #CD2F48",
"Y  c #C82F47",
"T  c #D62F4A",
"R  c #C73846",
"E  c #C63048",
"W  c #CF3149",
"Q  c #D53F46",
"!  c #D2324A",
"~  c #D63C49",
"^  c #D63846",
"/  c #E23E41",
"(  c #824646",
")  c #A44A42",
"_  c #A44741",
"`  c #BE4446",
"'  c #BF504E",
"]  c #AC5C49",
"[  c #906A4F",
"{  c #817258",
"}  c #87785F",
"|  c #9B7455",
" . c #9A7556",
".. c #89674D",
"X. c #B86B5C",
"o. c #A07C57",
"O. c #A37D5C",
"+. c #AF6653",
"@. c #A47F60",
"#. c #DC4149",
"$. c #DC4145",
"%. c #C85855",
"&. c #D85259",
"*. c #E34445",
"=. c #E2454A",
"-. c #E44A4A",
";. c #E84B4B",
":. c #E84344",
">. c #E7524D",
",. c #EA574F",
"<. c #E55554",
"1. c #EB5E56",
"2. c #E55C5C",
"3. c #EA5551",
"4. c #C76459",
"5. c #DE6659",
"6. c #C4705F",
"7. c #EB6056",
"8. c #EC695D",
"9. c #F06F5E",
"0. c #D35A66",
"q. c #DF6E60",
"w. c #C57563",
"e. c #C97B66",
"r. c #C97966",
"t. c #D17D68",
"y. c #D5757E",
"u. c #DF777B",
"i. c #D26E78",
"p. c #E6696A",
"a. c #E86668",
"s. c #EC7967",
"d. c #F37564",
"f. c #F27F69",
"g. c #E87C7C",
"h. c #E77677",
"j. c #A6855E",
"k. c #AB815C",
"l. c #A58767",
"z. c #BB8569",
"x. c #BD8B6E",
"c. c #AE9572",
"v. c #B9A27B",
"b. c #CD966A",
"n. c #CE9A6C",
"m. c #C49573",
"M. c #CA9D77",
"N. c #D19C6C",
"B. c #E5876F",
"V. c #F2846E",
"C. c #F5896F",
"Z. c #F28C73",
"A. c #FF8F73",
"S. c #FF9075",
"D. c #D4A372",
"F. c #D9AB79",
"G. c #D9A876",
"H. c #CAA577",
"J. c #DC7D82",
"K. c #D3818A",
"L. c #E88685",
"P. c #EB9999",
"I. c #F5928E",
"U. c #CDB589",
"Y. c #D9B584",
"T. c #D2B98D",
"R. c #DEBD8C",
"E. c #D4B288",
"W. c #D2AF85",
"Q. c #E0BF8D",
"!. c #DE9EA3",
"~. c #DFACB1",
"^. c #DFA8AD",
"/. c #EDA1A1",
"(. c #EFB1B1",
"). c #E7B7BB",
"_. c #F1B5B6",
"`. c #F2ADAD",
"'. c #DBC292",
"]. c #E8C38F",
"[. c #E2C594",
"{. c #E4C996",
"}. c #E5CB99",
"|. c #EACF9B",
" X c #E8C894",
".X c #EDD29E",
"XX c #F0D59F",
"oX c #F0D6A0",
"OX c #E5BEC1",
"+X c #F2C2C3",
"@X c #F4CCCC",
"#X c #F4DADB",
"$X c #EAC0C2",
"%X c #F0DEE0",
"&X c #F7EEEF",
"*X c #FDEAE9",
"=X c #F9E4E4",
"-X c #FBF3F3",
";X c #FFFEFE",
"  c #C8D45D",
/* pixels */
"                                                                                          ",
"                                                                                          ",
"                                                                                          ",
"                                                                                          ",
"                                                                                          ",
"                                                                                          ",
"                                                                                          ",
"                                                                                          ",
"                                                                                          ",
"                                                                                          ",
"                                                                                          ",
"                                                                                          ",
"                        & * & & & & & & & & & % % % & & * & & $ & & * %                   ",
"                  X O o w e e e r ' r.%.` w.e.w.#.X.e.r.r.r.m.%.` r.4.s @ o X             ",
"                  5 p u L.I.I.I.a.J V.p.>.f.V.f.&.7.C.V.V.V.f.7.-.V.9.#.i 5 5             ",
"                > t.H 0.#X*X*X*X`.j ,.>.-.1.7.1.;.>.7.1.1.1.1.<.;.1.1.;.~ q.t.>           ",
"              5 X.d.I.+X;X;X;X;X=XP.2.F -.*./ *.=.=.*.*.*.*.*.-.*.f f z *.9.s.X.5         ",
"            O X.C.G _.;X;X;X;X;X;X*Xh.x -.-.-.-.-.-.=.-.=.=.=.*.*.a.p.a.:./ 1.C.X.o       ",
"            o w.A.x +X;X;X;X;X;X;X;Xg.z -.-.-.-.-.-.-.-.-.-.-.z <.+X@X+X2.j >.A.w.o       ",
"            1 w.V.c +X;X;X;X;X;X;X-Xg.z -.-.*.D D *.-.-.-.-.*.<./.;X;X;X/.<.;.V.w.1       ",
"          1 t.s.>.l oX;X;X;X;X;X;X-Xg.z ;.=.D D D D ;.=.-.-.Z (.-X;X;X;X-X(.Z -.s.r.1     ",
"        o 6 Z.d.S A P.%X;X;X;X;X&X.Xp.S =.Z L.(._.J.Z ;.-.=.j @X;X;X;X;X;X@Xj F d.Z.6 o   ",
"          4 B.d.#.-.h i.-X;X;X;XOXg *.;.*.k +X;X;XOXk :.;.:.k oX;X;X;X;X;X+Xj *.d.B.1 o   ",
"          2 a.7.=.-.C #.!.^.^.^.J.n *.S p.+X-X;X;X-XOXa.S :.T J.OX;X;X;XOXu.D *.1.8.2 +   ",
"        # < ~ ;.-.-.;.$.V N N N V -.-.z g.-X;X;X;X;X-Xg.z ;.-.m 0.#X-X%X0.m >.-.;.~ < #   ",
"        @ < Y *.;.-.-.-.B B B B *.-.-.k g.;X;X;X;X;X;Xg.k ;.-.D ~ J.J.J.~ B -.-.*.Y < @   ",
"          : u R *.#.-.;.-.-.>.-.;.-.-.S a.OX&X;X;X&X).a.S -.-.>.-.m n m -.-.#.#.R u :     ",
"            = L W W ~ -.-.-.-.-.-.-.-.-.#.&.OX;X;XOX%.*.-.-.-.-.*./ / / =.#.U ! L =       ",
"            @ K ! U W ~ ~ ~ ~ ~ ^ ^ ~ #.T g y.).).y.g W Q ~ ~ ~ ~ ~ #.~ ~ ! U ! K @       ",
"            @ u E ! W U U U U U U U U U U U M g g M ! U U W U U U U W U U W W E K @       ",
"              ; y Y ! ! U U U Y U U U U U U M b b M W U U U U U U U W W U ! Y y :         ",
"                @ u I L a a t t t t t t t t K P t P t t t t t t a t a L a I u @           ",
"                  $ * $ % & * & & & & & & & & & & & & & & $ & $ $ & $ $ % * $             ",
"                        + 8 j.k.j.j.j.j.j.k.o.j.j.j.j.k.j. .j.o.o.k.9 o                   ",
"                        O O.G.N.b.b.n.b.n.G.D.b.b.b.N.N.D.F.F.F.F.G.k.o                   ",
"                        O O.N.] _ ) ) i +.'.M.i ) ) ) s m.{.[.[.].F.| O                   ",
"                        O k.D.m.x.x.x.z.m.{.E.z.z.x.x.z.F.}.}.}.{.F.o.O                   ",
"                        O | G.Q.[.[.[.[.[.}.{.[.[.[.[.[.{.}.{.}.[.G. .O                   ",
"                          3 O.Y.{..XoX.XoX.X.XXX.XXXXXXX|.{.{.].F.j.3                     ",
"                            > O.Y.}.U.U.U.T.T.T.T.T.T.U.'.}.|.T.k.>                       ",
"                              - v.{.} 8 0 q { { { { { 9 v.|.|.v.-                         ",
"                              . c.R.[ , . . . . . . . . l.].].c..                         ",
"                              + O.D.D. .+             O o.D.G.O.O                         ",
"                                7 [  ...                7 [ [ 7                           ",
"                                  + +                     + +                             "
};
