/* XPM */
static char *oldman1681838400[] = {
/* columns rows colors chars-per-pixel */
"45 45 193 2 ",
"   c None",
".  c black",
"X  c #000016",
"o  c #00001B",
"O  c #00081F",
"+  c #150C1C",
"@  c #060521",
"#  c #080722",
"$  c #000C22",
"%  c #0C0C23",
"&  c #00002F",
"*  c #140F21",
"=  c #071328",
"-  c #161223",
";  c #181425",
":  c #1B1729",
">  c #1B192C",
",  c #151428",
"<  c #000031",
"1  c #00003A",
"2  c #001539",
"3  c #1D1E33",
"4  c #121F39",
"5  c #251927",
"6  c #241A28",
"7  c #2D1C29",
"8  c #241E30",
"9  c #00283C",
"0  c #1F2136",
"q  c #1F253E",
"w  c #28232E",
"e  c #3D232A",
"r  c #37222B",
"t  c #222136",
"y  c #23253C",
"u  c #2E2536",
"i  c #352532",
"p  c #3D2731",
"a  c #372B36",
"s  c #512505",
"d  c #402429",
"f  c #442931",
"g  c #532F33",
"h  c #423232",
"j  c #5B3233",
"k  c #68332C",
"l  c #6A3735",
"z  c #793F34",
"x  c #733E39",
"c  c #703B33",
"v  c #614336",
"b  c #7C4034",
"n  c #000045",
"m  c #001B42",
"M  c #000F53",
"N  c #042749",
"B  c #182844",
"V  c #002353",
"C  c #1C2E5B",
"Z  c #182C57",
"A  c #1C325B",
"S  c #262B44",
"D  c #2A2C44",
"F  c #252F4C",
"G  c #3D2D41",
"H  c #2A304C",
"J  c #3C344A",
"K  c #2C3451",
"L  c #27365A",
"P  c #333B5A",
"I  c #002C62",
"U  c #043A67",
"Y  c #1F3B66",
"T  c #253C64",
"R  c #2D3D63",
"E  c #213660",
"W  c #303D63",
"Q  c #412F41",
"!  c #4C3643",
"~  c #573A4B",
"^  c #344164",
"/  c #3A4466",
"(  c #364568",
")  c #3B4668",
"_  c #3D486B",
"`  c #2A4066",
"'  c #594C4B",
"]  c #42415A",
"[  c #58585C",
"{  c #64414E",
"}  c #654C4B",
"|  c #6C534B",
" . c #795F52",
".. c #79635B",
"X. c #444969",
"o. c #50506B",
"O. c #605266",
"+. c #7A5F68",
"@. c #646468",
"#. c #7A6466",
"$. c #777779",
"%. c #727275",
"&. c #945C4B",
"*. c #8A5D57",
"=. c #A67959",
"-. c #847068",
";. c #877267",
":. c #987768",
">. c #9B7F7C",
",. c #8B6E6B",
"<. c #BD7F64",
"1. c #9F827D",
"2. c #A78169",
"3. c #BF8064",
"4. c #AE8973",
"5. c #A48A7E",
"6. c #B99178",
"7. c #C28264",
"8. c #C48669",
"9. c #C8896A",
"0. c #C4987E",
"q. c #E6A879",
"w. c #7F7F82",
"e. c #838385",
"r. c #878689",
"t. c #8A8A8C",
"y. c #97999C",
"u. c #B49785",
"i. c #BEA393",
"p. c #9194A0",
"a. c #A6A6A7",
"s. c #AFB3B9",
"d. c #B5B7B9",
"f. c #B6B6B7",
"g. c #A9AAB3",
"h. c #C69E88",
"j. c #D49F81",
"k. c #C7A18D",
"l. c #CCA38A",
"z. c #D4A483",
"x. c #D7A98D",
"c. c #DBA889",
"v. c #C8AC9B",
"b. c #DDAF94",
"n. c #E4AD85",
"m. c #E5AF89",
"M. c #E6B28E",
"N. c #EDB58D",
"B. c #EDB184",
"V. c #E5B492",
"C. c #E8B795",
"Z. c #ECB995",
"A. c #EBBB9B",
"S. c #E5B89A",
"D. c #F0BE9C",
"F. c #F7BF96",
"G. c #D8BBA9",
"H. c #CEBCB4",
"J. c #C3BBB8",
"K. c #ECBFA0",
"L. c #F5C19D",
"P. c #DEC0AC",
"I. c #EBC1A6",
"U. c #F2C3A4",
"Y. c #F0C4A8",
"T. c #EECDB9",
"R. c #E5C7B4",
"E. c #EFD0BE",
"W. c #FAD5BC",
"Q. c #FFD8BF",
"!. c #F7D2BA",
"~. c #F6CDB2",
"^. c #CAC9CA",
"/. c #D3D1D2",
"(. c #F1D3C2",
"). c #F9D7C1",
"_. c #FFDCC5",
"`. c #F4DACB",
"'. c #F4DED2",
"]. c #FFE2CB",
"[. c #EAE2DF",
"{. c #FFEBDE",
"}. c #FAE6D7",
"|. c #DDDEE2",
" X c #DBE0E5",
".X c #EBEBEC",
"XX c #F3F0EE",
"oX c #F3F4F4",
"OX c #FBF4F1",
"+X c #FFFEFE",
"@X c #FFFAF7",
"#X c #F7E8E1",
"   c #C8D45D",
/* pixels */
"                                                                                          ",
"                                            ; ; ; ; ; : :                                 ",
"                                          o @ o o X X X o X                               ",
"                                          % % $ O # # O # #                               ",
"                                ; ; ; X h 6.z.l.P.P.P.P.R.u.. ;                           ",
"                              . . . . . w V.L.U.].].].].}.v.. .                           ",
"                              [ @.o.' a } c.Z.L._.]._._.].v.a '                           ",
"                    ; ; ; - . f.@X.XR.q.x.C.C.I._.Q._._.].W.E.W.5.. :                     ",
"                    . . . . . ^.+X+X).N.A.C.V.I._.].]._._._.].].t.. .                     ",
"                    e.r.e.e.%./.+X+XE.M.C.Z.V.A.!.!.W._._._._.].i...;.                    ",
"              ; . e.@X+X+X@X+X+X+X+XE.n.C.C.C.C.Z.C.Y._._._._._._._._.-.. ;               ",
"              ; . r.+X+X+X+X+X+X+X+XT.q.n.M.n.M.V.M.Y.].]._.Q._.).]._.;.. :               ",
"              ; . e.+X+X+X+X+X+X+X+X}.(.(.(.`.(.C.V.A.!.~._.{.{.}.{.}.-.. ;               ",
"              ; . e.+X+X+X+X+X+X+X+X+X+X+X+X+XOXK.V.Z.V.n.`.+X+X+X+X+Xe.. ;               ",
"              ; . t.+X+X+X+X+X+X+X+X+X+X+X+X+X@XK.M.C.C.n.}.+X+X+X+X+Xe.. ;               ",
"                  $.d.f./.+X+X+X+X+X#X`.'.J.s.J.S.C.C.C.V.G.d.s..X+X+Xe.. ;               ",
"                    . . y.+X+X+X+X+XT.q.c.s . s V.A.Z.C.L.2.. . ^.+X+Xe.. ;               ",
"                    ; . a.+X+X+X+X+X(.N.V.| . | V.Z.S.C.A.4.. . /.+X+Xw.. ;               ",
"                        e.a.y.H.(.(.K.Z.V.| . | V.C.C.C.L.4.. . /.+X+Xe.. ;               ",
"                          . . =.N.m.C.A.V.v . v b.C.N.M.Z.2.. . /.+X+Xr.. ;               ",
"                          ; . 4.A.Z.C.Z.V.#.2 #.S.K.K.A.U.6.9 t /.+XOXe.. ;               ",
"                    ; ; ; - . 4.D.C.C.V.C.[..X.XOXOXOXOXOXXX.XXXg.@.$.                    ",
"                    + + + - . 4.L.A.Z.V.I.@X+X+X+X+X+X+X+X+X+X+Xa.. .                     ",
"                    t y 0 > X 1.b.x.V.C.A.OX+X+XOXOXOXOXOX@X+X+Xa.. t                     ",
"              ; + y W ) P S q ~ o.X.h.Z.A.OX+XOXI.S.A.A.C.'.+X+Xg.n ^ y + ;               ",
"              ; + y X.) P S y L U I h.F.U.@X+X@XL.N.Z.Z.B.}.+X+Xs.n / y + ;               ",
"              ; + y ) _ P S y P / R u.h.k./. X/.k.0.h.h.h.H.|.|.y.M / y + ;               ",
"              ; + S W _ P S y P ) / R T T A C Z m 2 N T T E C C W ) / y + ;               ",
"              ; + 8 ) X.A < < V U U W W ^ R R P B q Z ( W W W R ( / / y + ;               ",
"              ; * 8 W T #.4.4.:.,.,.O.W / / / ^ S y H / / / / / / / / y + ;               ",
"              ; * S / I t.F.U.c.7.9.,.I / / / ^ F y K / / / / / / _ / y + ;               ",
"              ; * 8 X.I >.Z.Z.j.7.8.#.U ( ( ( ^ F q K ( ( / ) / / / / y + ;               ",
"                  0 S 1 :.A.Z.z.3.8.*.~ { { { { a i Q { { ~ J J J J J t - ;               ",
"                    + . :.D.D.z.8.8.&.k z z z c f i j z b j r e e d d 5 , ;               ",
"                    ; . :.Z.Z.j.<.8.&.l x x x l f i g x b j i p p p f 6 ; ;               ",
"                        } .. .| } } ! G Q d e r 6 6 7 e e a u D w 6 6                     ",
"                          . . & N m N B B = @ $ % : , $ @ 0 F S 3 % -                     ",
"                          : - t S y y S S > - ; * : ; ; % 0 D S 8 - ;                     ",
"                              : > > q S S > - ;       ; - 0 S F 3 - ;                     ",
"                              - ; - y S S > ; ;       ; - 0 S S 3 - ;                     ",
"                              : ; ; y H S ; ; -       ; - 0 D S 3 - ;                     ",
"                              ; ; ; y S S > - ;       ; - 0 F S 8 - ;                     ",
"                              ; : : S H H 3 ; ;       ; ; y H H 0 : ;                     ",
"                                ; - y H S > -         ; - 8 D D 3 * ;                     ",
"                                                                                          "
};
