/* XPM */
static char *t1681917908[] = {
/* columns rows colors chars-per-pixel */
"45 45 114 2 ",
"   c #C8D45D",
".  c #010101",
"X  c #0B0606",
"o  c #0B0C0C",
"O  c #120708",
"+  c #140B0B",
"@  c #1A0D0D",
"#  c #0F1313",
"$  c gray9",
"%  c #1C1E1E",
"&  c #210D0D",
"*  c #2F1718",
"=  c #341A1B",
"-  c #1B2221",
";  c #192F2A",
":  c #212222",
">  c #262829",
",  c #292C2C",
"<  c #2B3333",
"1  c #2C3836",
"2  c #2E3D3B",
"3  c #333D3C",
"4  c #3A3E3E",
"5  c #5E2827",
"6  c #6E3636",
"7  c #743435",
"8  c #2B433E",
"9  c #3D4243",
"0  c #394947",
"q  c #27574C",
"w  c #29675A",
"e  c #306C5E",
"r  c #3B6F64",
"t  c #2C7162",
"y  c #3E7A6D",
"u  c #424646",
"i  c #454C4D",
"p  c #4D4D4D",
"a  c #4E4F50",
"s  c #435351",
"d  c #4F5151",
"f  c #4C5F5B",
"g  c #525556",
"h  c #545C5D",
"j  c #595C5D",
"k  c #47635D",
"l  c #566363",
"z  c #5C6566",
"x  c #5F6D6D",
"c  c #4A716A",
"v  c #57706D",
"b  c #5D7D77",
"n  c #616465",
"m  c #636C6E",
"M  c #6B6E6F",
"N  c #6F7576",
"B  c #617B76",
"V  c #6D7678",
"C  c #6E797A",
"Z  c #747C7C",
"A  c #853B3C",
"S  c #61817B",
"D  c #7B8282",
"F  c #7B898A",
"G  c #7D908E",
"H  c #799691",
"J  c #848B8B",
"K  c #898B8E",
"L  c #85908F",
"P  c #849392",
"I  c #8B9394",
"U  c #899897",
"Y  c #8D9A9B",
"T  c #909C9E",
"R  c #95A2A3",
"E  c #9DA4A6",
"W  c #9DA7A9",
"Q  c #9DAAAC",
"!  c #A4ADAE",
"~  c #A1AFB1",
"^  c #A4B1B2",
"/  c #ACB4B5",
"(  c #ACB7B8",
")  c #ADB9BB",
"_  c #B2BEBE",
"`  c #F199AF",
"'  c #EE9CB1",
"]  c #E5AEBD",
"[  c #B3BFC0",
"{  c #B6C2C3",
"}  c #BAC4C6",
"|  c #BCC7C8",
" . c #BECACB",
".. c #CCC3C8",
"X. c #C2CBCD",
"o. c #DAC1CA",
"O. c #C4CFD1",
"+. c #D8CBD1",
"@. c #C6D1D3",
"#. c #CAD4D5",
"$. c #CDD6D8",
"%. c #CFD9DB",
"&. c #D5D2D6",
"*. c #DCD5DA",
"=. c #D2DADC",
"-. c #DBDBDE",
";. c #E0D2D8",
":. c #D6DFE1",
">. c #DADEE0",
",. c #D7E0E2",
"<. c #DAE2E4",
"1. c #DEE6E8",
"2. c #E3EBED",
"3. c #E6EEF0",
/* pixels */
"                                                                                          ",
"                                                                                          ",
"                                                                                          ",
"                                                                                          ",
"                                                                                          ",
"                                              : : : : y                                   ",
"                                        t S ! $.<.-.-._ B                                 ",
"                          0 ^ ! ! U $ 0 _ =.,.<.1.2.2.2.=.^ 3 e                           ",
"                        P | ^ ) } #.$.#.} { } } | O.%.X.W g g g b w                       ",
"                      Y ) ( } W N g g g C R ^ ~ ~ W m Y ^ =.2.2.=.^ k                     ",
"                    s { ( @.I N X.$.$.#.{ z L ^ ( J X.:.2.2.2.2.2.1.X.q                   ",
"                    J ( } ! D =.<.2.2.2.<.@.X.$.:.,.<.1.2.3.3.3.3.2.<.G                   ",
"                    J _ O.#.,.<.2.3.3.3.2.<.<.<.<.<.<.1.3.3.3.3.3.3.1.I                   ",
"                    J _ @.=.<.1.3.3.3.3.2.1.<.<.<.<.<.1.3.3.3.3.3.3.1.X.c                 ",
"                    J _ @.,.<.<.3.3.3.2.2.<.<.1.<.<.<.1.3.3.3.3.3.3.<.<.u                 ",
"                    J { @.,.<.<.1.2.3.2.<.<.<.<.<.<.<.1.2.3.3.3.3.2.<.<.u                 ",
"                    F { #.%.<.<.<.<.<.<.<.<.<.<.<.<.<.<.<.2.2.2.1.<.<.,.k                 ",
"                    J ) @.#.,.<.<.<.<.<.<.<.<.<.<.<.>.:.<.<.<.<.1.<.<.W                   ",
"                    l {  . .#.,.<.<.<.<.2.<.<.<.<.1.<.2.2.<.<.<.2.1.<.R                   ",
"                    o | { @.@.,.<.<.<.E a [ <.<.<.<.:.R g } :.2.3.1.=.1                   ",
"                      J {  .O.#.<.<.<.p #.j <.<.<.<.,.a ..z <.<.1.,.} ;                   ",
"                      c _ [ X.#.<.<.:.% , u $.#.#.@.%.$ > g <.<.,.#.h                     ",
"                        P ( { O.=.<.%.o . 4 O.{ |  .| X . g <.<.%.W r                     ",
"                        4 ) { O.&.&.O.z % J { | } { X.j - K *.-.$.D                       ",
"                        % ( ) ..` ` o.$.=.<.<.,.<.<.<.:.-.' ' ] | v                       ",
"                        % ) ~ X.+.;.>.<.<.<.<./ 1.X.@.<.>.;.;.&.) -                       ",
"                        : ) ~ O.%.<.<.<.<.<.,.N N M { >.<.<.<.=.Z                         ",
"                        < ( / X.%.<.<.<.<.<.<.=./ | <.<.<.<.<.=.9                         ",
"                        H ( { O.O.:.<.<.<.<.<.<.,.<.<.<.<.<.<.$.9                         ",
"                        Z ) { O.O.$.:.:.<.<.<.<.<.<.<.<.<.<.:.O.h                         ",
"                        L ( ) O.O.O.@.#.%.%.%.=.,.:.%.%.%.#.O.O.{ 8                       ",
"                        2 R ~ ) X.O.O.X. . .( D < i Y  .O.O.O.X.Q %                       ",
"                          D ) ^ ^ [ [ ! V h 0       X V ) { [ ^ x                         ",
"                            > F U J 9 - -           . o x I P m                           ",
"                                      .             . .                                   ",
"                                      .             . .                                   ",
"                                      .             . .                                   ",
"                                      .             . @ &                                 ",
"                                      . X           . 6 A O                               ",
"                                      @ 7 5           + @                                 ",
"                                      X = =                                               ",
"                                                                                          ",
"                                                                                          ",
"                                                                                          ",
"                                                                                          "
};
